<?xml version="1.0" encoding="UTF-8" standalone="no"?>
<!DOCTYPE svg PUBLIC "-//W3C//DTD SVG 1.1//EN"
 "http://www.w3.org/Graphics/SVG/1.1/DTD/svg11.dtd">
<!-- Generated by graphviz version 5.0.0 (20220707.1540)
 -->
<!-- Title: Projecao Pages: 1 -->
<svg width="1085pt" height="1700pt"
 viewBox="0.00 0.00 1085.19 1700.00" xmlns="http://www.w3.org/2000/svg" xmlns:xlink="http://www.w3.org/1999/xlink">
<g id="graph0" class="graph" transform="scale(1 1) rotate(0) translate(4 1696)">
<title>Projecao</title>
<polygon fill="white" stroke="transparent" points="-4,4 -4,-1696 1081.19,-1696 1081.19,4 -4,4"/>
<!-- censo -->
<g id="node1" class="node">
<title>censo</title>
<polygon fill="deepskyblue" stroke="black" points="140.29,-1692 64.26,-1692 44.71,-1656 120.74,-1656 140.29,-1692"/>
<text text-anchor="middle" x="92.5" y="-1670.3" font-family="Times New Roman,serif" font-size="14.00">censo</text>
</g>
<!-- filtra_setores_rurais -->
<g id="node9" class="node">
<title>filtra_setores_rurais</title>
<polygon fill="#66cdaa" stroke="black" points="156,-1620 29,-1620 29,-1584 156,-1584 156,-1620"/>
<text text-anchor="middle" x="92.5" y="-1598.3" font-family="Times New Roman,serif" font-size="14.00">filtra_setores_rurais</text>
</g>
<!-- censo&#45;&gt;filtra_setores_rurais -->
<g id="edge1" class="edge">
<title>censo&#45;&gt;filtra_setores_rurais</title>
<path fill="none" stroke="black" d="M92.5,-1655.7C92.5,-1647.98 92.5,-1638.71 92.5,-1630.11"/>
<polygon fill="black" stroke="black" points="96,-1630.1 92.5,-1620.1 89,-1630.1 96,-1630.1"/>
</g>
<!-- parametros_interface -->
<g id="node2" class="node">
<title>parametros_interface</title>
<polygon fill="deepskyblue" stroke="black" points="1077.39,-828 873.95,-828 821.61,-792 1025.05,-792 1077.39,-828"/>
<text text-anchor="middle" x="949.5" y="-806.3" font-family="Times New Roman,serif" font-size="14.00">parametros_interface</text>
</g>
<!-- custo_individual_agua -->
<g id="node21" class="node">
<title>custo_individual_agua</title>
<polygon fill="#66cdaa" stroke="black" points="675,-756 534,-756 534,-720 675,-720 675,-756"/>
<text text-anchor="middle" x="604.5" y="-734.3" font-family="Times New Roman,serif" font-size="14.00">custo_individual_agua</text>
</g>
<!-- parametros_interface&#45;&gt;custo_individual_agua -->
<g id="edge30" class="edge">
<title>parametros_interface&#45;&gt;custo_individual_agua</title>
<path fill="none" stroke="black" d="M862.28,-791.97C812.86,-782.24 749.62,-769.65 685.07,-756.31"/>
<polygon fill="black" stroke="black" points="685.63,-752.85 675.12,-754.25 684.21,-759.71 685.63,-752.85"/>
</g>
<!-- calcula_reposicao_parcial_distribuicao -->
<g id="node29" class="node">
<title>calcula_reposicao_parcial_distribuicao</title>
<polygon fill="#66cdaa" stroke="black" points="959.5,-180 725.5,-180 725.5,-144 959.5,-144 959.5,-180"/>
<text text-anchor="middle" x="842.5" y="-158.3" font-family="Times New Roman,serif" font-size="14.00">calcula_reposicao_parcial_distribuicao</text>
</g>
<!-- parametros_interface&#45;&gt;calcula_reposicao_parcial_distribuicao -->
<g id="edge31" class="edge">
<title>parametros_interface&#45;&gt;calcula_reposicao_parcial_distribuicao</title>
<path fill="none" stroke="black" d="M949.5,-791.95C949.5,-765.29 949.5,-712.11 949.5,-667 949.5,-667 949.5,-667 949.5,-305 949.5,-264.46 953.13,-248.94 929.5,-216 920.37,-203.27 907.13,-193 893.74,-185.02"/>
<polygon fill="black" stroke="black" points="895.38,-181.93 884.95,-180.1 891.96,-188.04 895.38,-181.93"/>
</g>
<!-- calcula_reposicao_parcial_producao -->
<g id="node30" class="node">
<title>calcula_reposicao_parcial_producao</title>
<polygon fill="#66cdaa" stroke="black" points="1026,-108 803,-108 803,-72 1026,-72 1026,-108"/>
<text text-anchor="middle" x="914.5" y="-86.3" font-family="Times New Roman,serif" font-size="14.00">calcula_reposicao_parcial_producao</text>
</g>
<!-- parametros_interface&#45;&gt;calcula_reposicao_parcial_producao -->
<g id="edge32" class="edge">
<title>parametros_interface&#45;&gt;calcula_reposicao_parcial_producao</title>
<path fill="none" stroke="black" d="M957.19,-791.91C968.29,-765.62 987.5,-713.45 987.5,-667 987.5,-667 987.5,-667 987.5,-233 987.5,-192.55 987.98,-179.45 968.5,-144 962.58,-133.23 953.77,-123.25 944.98,-114.92"/>
<polygon fill="black" stroke="black" points="947.1,-112.13 937.33,-108.05 942.43,-117.34 947.1,-112.13"/>
</g>
<!-- taxas_crescimento -->
<g id="node3" class="node">
<title>taxas_crescimento</title>
<polygon fill="deepskyblue" stroke="black" points="431.71,-1548 250.03,-1548 203.29,-1512 384.97,-1512 431.71,-1548"/>
<text text-anchor="middle" x="317.5" y="-1526.3" font-family="Times New Roman,serif" font-size="14.00">taxas_crescimento</text>
</g>
<!-- adiciona_taxa_crescimento -->
<g id="node11" class="node">
<title>adiciona_taxa_crescimento</title>
<polygon fill="#66cdaa" stroke="black" points="288.5,-1476 120.5,-1476 120.5,-1440 288.5,-1440 288.5,-1476"/>
<text text-anchor="middle" x="204.5" y="-1454.3" font-family="Times New Roman,serif" font-size="14.00">adiciona_taxa_crescimento</text>
</g>
<!-- taxas_crescimento&#45;&gt;adiciona_taxa_crescimento -->
<g id="edge4" class="edge">
<title>taxas_crescimento&#45;&gt;adiciona_taxa_crescimento</title>
<path fill="none" stroke="black" d="M289.86,-1511.88C275.08,-1502.72 256.71,-1491.34 240.8,-1481.48"/>
<polygon fill="black" stroke="black" points="242.59,-1478.48 232.25,-1476.19 238.91,-1484.43 242.59,-1478.48"/>
</g>
<!-- seguranca_hidrica -->
<g id="node4" class="node">
<title>seguranca_hidrica</title>
<polygon fill="deepskyblue" stroke="black" points="605.99,-972 428.64,-972 383.01,-936 560.36,-936 605.99,-972"/>
<text text-anchor="middle" x="494.5" y="-950.3" font-family="Times New Roman,serif" font-size="14.00">seguranca_hidrica</text>
</g>
<!-- adiciona_seguranca_hidrica -->
<g id="node19" class="node">
<title>adiciona_seguranca_hidrica</title>
<polygon fill="#66cdaa" stroke="black" points="473,-900 302,-900 302,-864 473,-864 473,-900"/>
<text text-anchor="middle" x="387.5" y="-878.3" font-family="Times New Roman,serif" font-size="14.00">adiciona_seguranca_hidrica</text>
</g>
<!-- seguranca_hidrica&#45;&gt;adiciona_seguranca_hidrica -->
<g id="edge14" class="edge">
<title>seguranca_hidrica&#45;&gt;adiciona_seguranca_hidrica</title>
<path fill="none" stroke="black" d="M468.32,-935.88C454.46,-926.81 437.26,-915.55 422.29,-905.76"/>
<polygon fill="black" stroke="black" points="424.06,-902.74 413.78,-900.19 420.23,-908.59 424.06,-902.74"/>
</g>
<!-- deficit_pnad -->
<g id="node5" class="node">
<title>deficit_pnad</title>
<polygon fill="deepskyblue" stroke="black" points="438.41,-1044 308.11,-1044 274.59,-1008 404.89,-1008 438.41,-1044"/>
<text text-anchor="middle" x="356.5" y="-1022.3" font-family="Times New Roman,serif" font-size="14.00">deficit_pnad</text>
</g>
<!-- adiciona_deficit_rural_agua -->
<g id="node18" class="node">
<title>adiciona_deficit_rural_agua</title>
<polygon fill="#66cdaa" stroke="black" points="365.5,-972 195.5,-972 195.5,-936 365.5,-936 365.5,-972"/>
<text text-anchor="middle" x="280.5" y="-950.3" font-family="Times New Roman,serif" font-size="14.00">adiciona_deficit_rural_agua</text>
</g>
<!-- deficit_pnad&#45;&gt;adiciona_deficit_rural_agua -->
<g id="edge12" class="edge">
<title>deficit_pnad&#45;&gt;adiciona_deficit_rural_agua</title>
<path fill="none" stroke="black" d="M337.71,-1007.7C328.33,-999.05 316.82,-988.45 306.59,-979.03"/>
<polygon fill="black" stroke="black" points="308.8,-976.3 299.07,-972.1 304.05,-981.45 308.8,-976.3"/>
</g>
<!-- custo_producao -->
<g id="node6" class="node">
<title>custo_producao</title>
<polygon fill="deepskyblue" stroke="black" points="900.24,-756 735.21,-756 692.76,-720 857.79,-720 900.24,-756"/>
<text text-anchor="middle" x="796.5" y="-734.3" font-family="Times New Roman,serif" font-size="14.00">custo_producao</text>
</g>
<!-- custo_producao_agua -->
<g id="node22" class="node">
<title>custo_producao_agua</title>
<polygon fill="#66cdaa" stroke="black" points="675.5,-684 533.5,-684 533.5,-648 675.5,-648 675.5,-684"/>
<text text-anchor="middle" x="604.5" y="-662.3" font-family="Times New Roman,serif" font-size="14.00">custo_producao_agua</text>
</g>
<!-- custo_producao&#45;&gt;custo_producao_agua -->
<g id="edge19" class="edge">
<title>custo_producao&#45;&gt;custo_producao_agua</title>
<path fill="none" stroke="black" d="M749.53,-719.88C722.82,-710.14 689.18,-697.87 661.03,-687.61"/>
<polygon fill="black" stroke="black" points="661.91,-684.21 651.32,-684.07 659.51,-690.78 661.91,-684.21"/>
</g>
<!-- custo_distribuicao -->
<g id="node7" class="node">
<title>custo_distribuicao</title>
<polygon fill="deepskyblue" stroke="black" points="921.71,-684 740.03,-684 693.29,-648 874.97,-648 921.71,-684"/>
<text text-anchor="middle" x="807.5" y="-662.3" font-family="Times New Roman,serif" font-size="14.00">custo_distribuicao</text>
</g>
<!-- custo_distribuicao_agua -->
<g id="node23" class="node">
<title>custo_distribuicao_agua</title>
<polygon fill="#66cdaa" stroke="black" points="884,-612 731,-612 731,-576 884,-576 884,-612"/>
<text text-anchor="middle" x="807.5" y="-590.3" font-family="Times New Roman,serif" font-size="14.00">custo_distribuicao_agua</text>
</g>
<!-- custo_distribuicao&#45;&gt;custo_distribuicao_agua -->
<g id="edge21" class="edge">
<title>custo_distribuicao&#45;&gt;custo_distribuicao_agua</title>
<path fill="none" stroke="black" d="M807.5,-647.7C807.5,-639.98 807.5,-630.71 807.5,-622.11"/>
<polygon fill="black" stroke="black" points="811,-622.1 807.5,-612.1 804,-622.1 811,-622.1"/>
</g>
<!-- custo_rural_individual -->
<g id="node8" class="node">
<title>custo_rural_individual</title>
<polygon fill="deepskyblue" stroke="black" points="770.82,-828 558.74,-828 504.18,-792 716.26,-792 770.82,-828"/>
<text text-anchor="middle" x="637.5" y="-806.3" font-family="Times New Roman,serif" font-size="14.00">custo_rural_individual</text>
</g>
<!-- custo_rural_individual&#45;&gt;custo_individual_agua -->
<g id="edge17" class="edge">
<title>custo_rural_individual&#45;&gt;custo_individual_agua</title>
<path fill="none" stroke="black" d="M629.34,-791.7C625.59,-783.73 621.05,-774.1 616.88,-765.26"/>
<polygon fill="black" stroke="black" points="619.99,-763.66 612.56,-756.1 613.66,-766.64 619.99,-763.66"/>
</g>
<!-- codigo_setor_para_municipio -->
<g id="node10" class="node">
<title>codigo_setor_para_municipio</title>
<polygon fill="#66cdaa" stroke="black" points="185,-1548 0,-1548 0,-1512 185,-1512 185,-1548"/>
<text text-anchor="middle" x="92.5" y="-1526.3" font-family="Times New Roman,serif" font-size="14.00">codigo_setor_para_municipio</text>
</g>
<!-- filtra_setores_rurais&#45;&gt;codigo_setor_para_municipio -->
<g id="edge2" class="edge">
<title>filtra_setores_rurais&#45;&gt;codigo_setor_para_municipio</title>
<path fill="none" stroke="black" d="M92.5,-1583.7C92.5,-1575.98 92.5,-1566.71 92.5,-1558.11"/>
<polygon fill="black" stroke="black" points="96,-1558.1 92.5,-1548.1 89,-1558.1 96,-1558.1"/>
</g>
<!-- codigo_setor_para_municipio&#45;&gt;adiciona_taxa_crescimento -->
<g id="edge3" class="edge">
<title>codigo_setor_para_municipio&#45;&gt;adiciona_taxa_crescimento</title>
<path fill="none" stroke="black" d="M119.9,-1511.88C134.41,-1502.81 152.42,-1491.55 168.09,-1481.76"/>
<polygon fill="black" stroke="black" points="170.37,-1484.46 177,-1476.19 166.66,-1478.52 170.37,-1484.46"/>
</g>
<!-- fazer_projecao_domicilio -->
<g id="node12" class="node">
<title>fazer_projecao_domicilio</title>
<polygon fill="#66cdaa" stroke="black" points="284,-1404 125,-1404 125,-1368 284,-1368 284,-1404"/>
<text text-anchor="middle" x="204.5" y="-1382.3" font-family="Times New Roman,serif" font-size="14.00">fazer_projecao_domicilio</text>
</g>
<!-- adiciona_taxa_crescimento&#45;&gt;fazer_projecao_domicilio -->
<g id="edge5" class="edge">
<title>adiciona_taxa_crescimento&#45;&gt;fazer_projecao_domicilio</title>
<path fill="none" stroke="black" d="M204.5,-1439.7C204.5,-1431.98 204.5,-1422.71 204.5,-1414.11"/>
<polygon fill="black" stroke="black" points="208,-1414.1 204.5,-1404.1 201,-1414.1 208,-1414.1"/>
</g>
<!-- densidade_setor -->
<g id="node13" class="node">
<title>densidade_setor</title>
<polygon fill="#66cdaa" stroke="black" points="258.5,-1332 150.5,-1332 150.5,-1296 258.5,-1296 258.5,-1332"/>
<text text-anchor="middle" x="204.5" y="-1310.3" font-family="Times New Roman,serif" font-size="14.00">densidade_setor</text>
</g>
<!-- fazer_projecao_domicilio&#45;&gt;densidade_setor -->
<g id="edge6" class="edge">
<title>fazer_projecao_domicilio&#45;&gt;densidade_setor</title>
<path fill="none" stroke="black" d="M204.5,-1367.7C204.5,-1359.98 204.5,-1350.71 204.5,-1342.11"/>
<polygon fill="black" stroke="black" points="208,-1342.1 204.5,-1332.1 201,-1342.1 208,-1342.1"/>
</g>
<!-- classifica_densidade_setor -->
<g id="node14" class="node">
<title>classifica_densidade_setor</title>
<polygon fill="#66cdaa" stroke="black" points="288,-1260 121,-1260 121,-1224 288,-1224 288,-1260"/>
<text text-anchor="middle" x="204.5" y="-1238.3" font-family="Times New Roman,serif" font-size="14.00">classifica_densidade_setor</text>
</g>
<!-- densidade_setor&#45;&gt;classifica_densidade_setor -->
<g id="edge7" class="edge">
<title>densidade_setor&#45;&gt;classifica_densidade_setor</title>
<path fill="none" stroke="black" d="M204.5,-1295.7C204.5,-1287.98 204.5,-1278.71 204.5,-1270.11"/>
<polygon fill="black" stroke="black" points="208,-1270.1 204.5,-1260.1 201,-1270.1 208,-1270.1"/>
</g>
<!-- classifica_deficit_setor -->
<g id="node15" class="node">
<title>classifica_deficit_setor</title>
<polygon fill="#66cdaa" stroke="black" points="277,-1188 132,-1188 132,-1152 277,-1152 277,-1188"/>
<text text-anchor="middle" x="204.5" y="-1166.3" font-family="Times New Roman,serif" font-size="14.00">classifica_deficit_setor</text>
</g>
<!-- classifica_densidade_setor&#45;&gt;classifica_deficit_setor -->
<g id="edge8" class="edge">
<title>classifica_densidade_setor&#45;&gt;classifica_deficit_setor</title>
<path fill="none" stroke="black" d="M204.5,-1223.7C204.5,-1215.98 204.5,-1206.71 204.5,-1198.11"/>
<polygon fill="black" stroke="black" points="208,-1198.1 204.5,-1188.1 201,-1198.1 208,-1198.1"/>
</g>
<!-- adiciona_estado -->
<g id="node16" class="node">
<title>adiciona_estado</title>
<polygon fill="#66cdaa" stroke="black" points="258,-1116 151,-1116 151,-1080 258,-1080 258,-1116"/>
<text text-anchor="middle" x="204.5" y="-1094.3" font-family="Times New Roman,serif" font-size="14.00">adiciona_estado</text>
</g>
<!-- classifica_deficit_setor&#45;&gt;adiciona_estado -->
<g id="edge9" class="edge">
<title>classifica_deficit_setor&#45;&gt;adiciona_estado</title>
<path fill="none" stroke="black" d="M204.5,-1151.7C204.5,-1143.98 204.5,-1134.71 204.5,-1126.11"/>
<polygon fill="black" stroke="black" points="208,-1126.1 204.5,-1116.1 201,-1126.1 208,-1126.1"/>
</g>
<!-- adiciona_regiao -->
<g id="node17" class="node">
<title>adiciona_regiao</title>
<polygon fill="#66cdaa" stroke="black" points="256.5,-1044 152.5,-1044 152.5,-1008 256.5,-1008 256.5,-1044"/>
<text text-anchor="middle" x="204.5" y="-1022.3" font-family="Times New Roman,serif" font-size="14.00">adiciona_regiao</text>
</g>
<!-- adiciona_estado&#45;&gt;adiciona_regiao -->
<g id="edge10" class="edge">
<title>adiciona_estado&#45;&gt;adiciona_regiao</title>
<path fill="none" stroke="black" d="M204.5,-1079.7C204.5,-1071.98 204.5,-1062.71 204.5,-1054.11"/>
<polygon fill="black" stroke="black" points="208,-1054.1 204.5,-1044.1 201,-1054.1 208,-1054.1"/>
</g>
<!-- adiciona_regiao&#45;&gt;adiciona_deficit_rural_agua -->
<g id="edge11" class="edge">
<title>adiciona_regiao&#45;&gt;adiciona_deficit_rural_agua</title>
<path fill="none" stroke="black" d="M223.29,-1007.7C232.67,-999.05 244.18,-988.45 254.41,-979.03"/>
<polygon fill="black" stroke="black" points="256.95,-981.45 261.93,-972.1 252.2,-976.3 256.95,-981.45"/>
</g>
<!-- adiciona_deficit_rural_agua&#45;&gt;adiciona_seguranca_hidrica -->
<g id="edge13" class="edge">
<title>adiciona_deficit_rural_agua&#45;&gt;adiciona_seguranca_hidrica</title>
<path fill="none" stroke="black" d="M306.68,-935.88C320.54,-926.81 337.74,-915.55 352.71,-905.76"/>
<polygon fill="black" stroke="black" points="354.77,-908.59 361.22,-900.19 350.94,-902.74 354.77,-908.59"/>
</g>
<!-- fracao_coletivo_individual_agua -->
<g id="node20" class="node">
<title>fracao_coletivo_individual_agua</title>
<polygon fill="#66cdaa" stroke="black" points="486,-828 289,-828 289,-792 486,-792 486,-828"/>
<text text-anchor="middle" x="387.5" y="-806.3" font-family="Times New Roman,serif" font-size="14.00">fracao_coletivo_individual_agua</text>
</g>
<!-- adiciona_seguranca_hidrica&#45;&gt;fracao_coletivo_individual_agua -->
<g id="edge15" class="edge">
<title>adiciona_seguranca_hidrica&#45;&gt;fracao_coletivo_individual_agua</title>
<path fill="none" stroke="black" d="M387.5,-863.7C387.5,-855.98 387.5,-846.71 387.5,-838.11"/>
<polygon fill="black" stroke="black" points="391,-838.1 387.5,-828.1 384,-838.1 391,-838.1"/>
</g>
<!-- fracao_coletivo_individual_agua&#45;&gt;custo_individual_agua -->
<g id="edge16" class="edge">
<title>fracao_coletivo_individual_agua&#45;&gt;custo_individual_agua</title>
<path fill="none" stroke="black" d="M440.31,-791.97C470.89,-782.1 509.57,-769.62 541.71,-759.25"/>
<polygon fill="black" stroke="black" points="543.01,-762.51 551.46,-756.11 540.86,-755.85 543.01,-762.51"/>
</g>
<!-- custo_individual_agua&#45;&gt;custo_producao_agua -->
<g id="edge18" class="edge">
<title>custo_individual_agua&#45;&gt;custo_producao_agua</title>
<path fill="none" stroke="black" d="M604.5,-719.7C604.5,-711.98 604.5,-702.71 604.5,-694.11"/>
<polygon fill="black" stroke="black" points="608,-694.1 604.5,-684.1 601,-694.1 608,-694.1"/>
</g>
<!-- custo_producao_agua&#45;&gt;custo_distribuicao_agua -->
<g id="edge20" class="edge">
<title>custo_producao_agua&#45;&gt;custo_distribuicao_agua</title>
<path fill="none" stroke="black" d="M653.9,-647.97C682.39,-638.14 718.39,-625.73 748.37,-615.39"/>
<polygon fill="black" stroke="black" points="749.57,-618.68 757.88,-612.11 747.28,-612.06 749.57,-618.68"/>
</g>
<!-- domicilios_com_deficit_agua -->
<g id="node24" class="node">
<title>domicilios_com_deficit_agua</title>
<polygon fill="#66cdaa" stroke="black" points="900.5,-540 718.5,-540 718.5,-504 900.5,-504 900.5,-540"/>
<text text-anchor="middle" x="809.5" y="-518.3" font-family="Times New Roman,serif" font-size="14.00">domicilios_com_deficit_agua</text>
</g>
<!-- custo_distribuicao_agua&#45;&gt;domicilios_com_deficit_agua -->
<g id="edge22" class="edge">
<title>custo_distribuicao_agua&#45;&gt;domicilios_com_deficit_agua</title>
<path fill="none" stroke="black" d="M807.99,-575.7C808.21,-567.98 808.48,-558.71 808.73,-550.11"/>
<polygon fill="black" stroke="black" points="812.22,-550.2 809.01,-540.1 805.23,-550 812.22,-550.2"/>
</g>
<!-- habitantes_com_deficit_agua -->
<g id="node25" class="node">
<title>habitantes_com_deficit_agua</title>
<polygon fill="#66cdaa" stroke="black" points="904,-468 725,-468 725,-432 904,-432 904,-468"/>
<text text-anchor="middle" x="814.5" y="-446.3" font-family="Times New Roman,serif" font-size="14.00">habitantes_com_deficit_agua</text>
</g>
<!-- domicilios_com_deficit_agua&#45;&gt;habitantes_com_deficit_agua -->
<g id="edge23" class="edge">
<title>domicilios_com_deficit_agua&#45;&gt;habitantes_com_deficit_agua</title>
<path fill="none" stroke="black" d="M810.74,-503.7C811.29,-495.98 811.95,-486.71 812.56,-478.11"/>
<polygon fill="black" stroke="black" points="816.06,-478.33 813.28,-468.1 809.07,-477.83 816.06,-478.33"/>
</g>
<!-- domicilios_adequados_com_agua -->
<g id="node26" class="node">
<title>domicilios_adequados_com_agua</title>
<polygon fill="#66cdaa" stroke="black" points="920.5,-396 712.5,-396 712.5,-360 920.5,-360 920.5,-396"/>
<text text-anchor="middle" x="816.5" y="-374.3" font-family="Times New Roman,serif" font-size="14.00">domicilios_adequados_com_agua</text>
</g>
<!-- habitantes_com_deficit_agua&#45;&gt;domicilios_adequados_com_agua -->
<g id="edge24" class="edge">
<title>habitantes_com_deficit_agua&#45;&gt;domicilios_adequados_com_agua</title>
<path fill="none" stroke="black" d="M814.99,-431.7C815.21,-423.98 815.48,-414.71 815.73,-406.11"/>
<polygon fill="black" stroke="black" points="819.22,-406.2 816.01,-396.1 812.23,-406 819.22,-406.2"/>
</g>
<!-- investimento_rural_agua -->
<g id="node27" class="node">
<title>investimento_rural_agua</title>
<polygon fill="#66cdaa" stroke="black" points="894.5,-324 742.5,-324 742.5,-288 894.5,-288 894.5,-324"/>
<text text-anchor="middle" x="818.5" y="-302.3" font-family="Times New Roman,serif" font-size="14.00">investimento_rural_agua</text>
</g>
<!-- domicilios_adequados_com_agua&#45;&gt;investimento_rural_agua -->
<g id="edge25" class="edge">
<title>domicilios_adequados_com_agua&#45;&gt;investimento_rural_agua</title>
<path fill="none" stroke="black" d="M816.99,-359.7C817.21,-351.98 817.48,-342.71 817.73,-334.11"/>
<polygon fill="black" stroke="black" points="821.22,-334.2 818.01,-324.1 814.23,-334 821.22,-334.2"/>
</g>
<!-- capacidade_instalada_rural_agua -->
<g id="node28" class="node">
<title>capacidade_instalada_rural_agua</title>
<polygon fill="#66cdaa" stroke="black" points="920.5,-252 720.5,-252 720.5,-216 920.5,-216 920.5,-252"/>
<text text-anchor="middle" x="820.5" y="-230.3" font-family="Times New Roman,serif" font-size="14.00">capacidade_instalada_rural_agua</text>
</g>
<!-- investimento_rural_agua&#45;&gt;capacidade_instalada_rural_agua -->
<g id="edge26" class="edge">
<title>investimento_rural_agua&#45;&gt;capacidade_instalada_rural_agua</title>
<path fill="none" stroke="black" d="M818.99,-287.7C819.21,-279.98 819.48,-270.71 819.73,-262.11"/>
<polygon fill="black" stroke="black" points="823.22,-262.2 820.01,-252.1 816.23,-262 823.22,-262.2"/>
</g>
<!-- capacidade_instalada_rural_agua&#45;&gt;calcula_reposicao_parcial_distribuicao -->
<g id="edge27" class="edge">
<title>capacidade_instalada_rural_agua&#45;&gt;calcula_reposicao_parcial_distribuicao</title>
<path fill="none" stroke="black" d="M825.94,-215.7C828.39,-207.9 831.34,-198.51 834.07,-189.83"/>
<polygon fill="black" stroke="black" points="837.46,-190.69 837.12,-180.1 830.79,-188.59 837.46,-190.69"/>
</g>
<!-- calcula_reposicao_parcial_distribuicao&#45;&gt;calcula_reposicao_parcial_producao -->
<g id="edge28" class="edge">
<title>calcula_reposicao_parcial_distribuicao&#45;&gt;calcula_reposicao_parcial_producao</title>
<path fill="none" stroke="black" d="M860.3,-143.7C869.1,-135.14 879.88,-124.66 889.5,-115.3"/>
<polygon fill="black" stroke="black" points="892.18,-117.58 896.91,-108.1 887.3,-112.57 892.18,-117.58"/>
</g>
<!-- consolida_investimentos_rural_agua -->
<g id="node31" class="node">
<title>consolida_investimentos_rural_agua</title>
<polygon fill="#66cdaa" stroke="black" points="1024,-36 805,-36 805,0 1024,0 1024,-36"/>
<text text-anchor="middle" x="914.5" y="-14.3" font-family="Times New Roman,serif" font-size="14.00">consolida_investimentos_rural_agua</text>
</g>
<!-- calcula_reposicao_parcial_producao&#45;&gt;consolida_investimentos_rural_agua -->
<g id="edge29" class="edge">
<title>calcula_reposicao_parcial_producao&#45;&gt;consolida_investimentos_rural_agua</title>
<path fill="none" stroke="black" d="M914.5,-71.7C914.5,-63.98 914.5,-54.71 914.5,-46.11"/>
<polygon fill="black" stroke="black" points="918,-46.1 914.5,-36.1 911,-46.1 918,-46.1"/>
</g>
</g>
</svg>
