<?xml version="1.0" encoding="UTF-8" standalone="no"?>
<!DOCTYPE svg PUBLIC "-//W3C//DTD SVG 1.1//EN"
 "http://www.w3.org/Graphics/SVG/1.1/DTD/svg11.dtd">
<!-- Generated by graphviz version 5.0.0 (20220707.1540)
 -->
<!-- Title: Projecao Pages: 1 -->
<svg width="598pt" height="840pt"
 viewBox="0.00 0.00 598.00 840.24" xmlns="http://www.w3.org/2000/svg" xmlns:xlink="http://www.w3.org/1999/xlink">
<g id="graph0" class="graph" transform="scale(0.494257 0.494257) rotate(0) translate(4 1696)">
<title>Projecao</title>
<polygon fill="white" stroke="transparent" points="-4,4 -4,-1696 1205.9,-1696 1205.9,4 -4,4"/>
<!-- censo -->
<g id="node1" class="node">
<title>censo</title>
<polygon fill="deepskyblue" stroke="black" points="150.89,-1692 74.86,-1692 55.3,-1656 131.33,-1656 150.89,-1692"/>
<text text-anchor="middle" x="103.1" y="-1670.3" font-family="Times New Roman,serif" font-size="14.00">censo</text>
</g>
<!-- filtra_setores_rurais -->
<g id="node9" class="node">
<title>filtra_setores_rurais</title>
<polygon fill="#66cdaa" stroke="black" points="166.6,-1620 39.6,-1620 39.6,-1584 166.6,-1584 166.6,-1620"/>
<text text-anchor="middle" x="103.1" y="-1598.3" font-family="Times New Roman,serif" font-size="14.00">filtra_setores_rurais</text>
</g>
<!-- censo&#45;&gt;filtra_setores_rurais -->
<g id="edge1" class="edge">
<title>censo&#45;&gt;filtra_setores_rurais</title>
<path fill="none" stroke="black" d="M103.1,-1655.7C103.1,-1647.98 103.1,-1638.71 103.1,-1630.11"/>
<polygon fill="black" stroke="black" points="106.6,-1630.1 103.1,-1620.1 99.6,-1630.1 106.6,-1630.1"/>
</g>
<!-- parametros_interface -->
<g id="node2" class="node">
<title>parametros_interface</title>
<polygon fill="deepskyblue" stroke="black" points="1186.99,-828 983.55,-828 931.21,-792 1134.65,-792 1186.99,-828"/>
<text text-anchor="middle" x="1059.1" y="-806.3" font-family="Times New Roman,serif" font-size="14.00">parametros_interface</text>
</g>
<!-- custo_individual_agua -->
<g id="node21" class="node">
<title>custo_individual_agua</title>
<polygon fill="#66cdaa" stroke="black" points="744.6,-756 603.6,-756 603.6,-720 744.6,-720 744.6,-756"/>
<text text-anchor="middle" x="674.1" y="-734.3" font-family="Times New Roman,serif" font-size="14.00">custo_individual_agua</text>
</g>
<!-- parametros_interface&#45;&gt;custo_individual_agua -->
<g id="edge30" class="edge">
<title>parametros_interface&#45;&gt;custo_individual_agua</title>
<path fill="none" stroke="black" d="M965.41,-791.97C901,-780.25 816.33,-764.86 754.89,-753.69"/>
<polygon fill="black" stroke="black" points="755.32,-750.21 744.85,-751.86 754.06,-757.1 755.32,-750.21"/>
</g>
<!-- calcula_reposicao_parcial_distribuicao -->
<g id="node29" class="node">
<title>calcula_reposicao_parcial_distribuicao</title>
<polygon fill="#66cdaa" stroke="black" points="1057.1,-180 823.1,-180 823.1,-144 1057.1,-144 1057.1,-180"/>
<text text-anchor="middle" x="940.1" y="-158.3" font-family="Times New Roman,serif" font-size="14.00">calcula_reposicao_parcial_distribuicao</text>
</g>
<!-- parametros_interface&#45;&gt;calcula_reposicao_parcial_distribuicao -->
<g id="edge31" class="edge">
<title>parametros_interface&#45;&gt;calcula_reposicao_parcial_distribuicao</title>
<path fill="none" stroke="black" d="M1059.1,-791.95C1059.1,-765.29 1059.1,-712.11 1059.1,-667 1059.1,-667 1059.1,-667 1059.1,-305 1059.1,-262.5 1051.2,-248.75 1024.1,-216 1013.91,-203.69 1000.08,-193.34 986.59,-185.15"/>
<polygon fill="black" stroke="black" points="988.23,-182.06 977.82,-180.08 984.73,-188.12 988.23,-182.06"/>
</g>
<!-- calcula_reposicao_parcial_producao -->
<g id="node30" class="node">
<title>calcula_reposicao_parcial_producao</title>
<polygon fill="#66cdaa" stroke="black" points="1131.6,-108 908.6,-108 908.6,-72 1131.6,-72 1131.6,-108"/>
<text text-anchor="middle" x="1020.1" y="-86.3" font-family="Times New Roman,serif" font-size="14.00">calcula_reposicao_parcial_producao</text>
</g>
<!-- parametros_interface&#45;&gt;calcula_reposicao_parcial_producao -->
<g id="edge32" class="edge">
<title>parametros_interface&#45;&gt;calcula_reposicao_parcial_producao</title>
<path fill="none" stroke="black" d="M1068.01,-791.58C1080.6,-765.3 1102.1,-713.62 1102.1,-667 1102.1,-667 1102.1,-667 1102.1,-233 1102.1,-186.88 1069.26,-142.26 1045.14,-115.72"/>
<polygon fill="black" stroke="black" points="1047.69,-113.31 1038.3,-108.4 1042.57,-118.1 1047.69,-113.31"/>
</g>
<!-- taxas_crescimento -->
<g id="node3" class="node">
<title>taxas_crescimento</title>
<polygon fill="deepskyblue" stroke="black" points="468.3,-1548 286.63,-1548 239.89,-1512 421.57,-1512 468.3,-1548"/>
<text text-anchor="middle" x="354.1" y="-1526.3" font-family="Times New Roman,serif" font-size="14.00">taxas_crescimento</text>
</g>
<!-- adiciona_taxa_crescimento -->
<g id="node11" class="node">
<title>adiciona_taxa_crescimento</title>
<polygon fill="#66cdaa" stroke="black" points="312.1,-1476 144.1,-1476 144.1,-1440 312.1,-1440 312.1,-1476"/>
<text text-anchor="middle" x="228.1" y="-1454.3" font-family="Times New Roman,serif" font-size="14.00">adiciona_taxa_crescimento</text>
</g>
<!-- taxas_crescimento&#45;&gt;adiciona_taxa_crescimento -->
<g id="edge4" class="edge">
<title>taxas_crescimento&#45;&gt;adiciona_taxa_crescimento</title>
<path fill="none" stroke="black" d="M323.28,-1511.88C306.65,-1502.64 285.93,-1491.13 268.08,-1481.21"/>
<polygon fill="black" stroke="black" points="269.48,-1477.99 259.04,-1476.19 266.08,-1484.11 269.48,-1477.99"/>
</g>
<!-- seguranca_hidrica -->
<g id="node4" class="node">
<title>seguranca_hidrica</title>
<polygon fill="deepskyblue" stroke="black" points="663.59,-972 486.23,-972 440.61,-936 617.96,-936 663.59,-972"/>
<text text-anchor="middle" x="552.1" y="-950.3" font-family="Times New Roman,serif" font-size="14.00">seguranca_hidrica</text>
</g>
<!-- adiciona_seguranca_hidrica -->
<g id="node19" class="node">
<title>adiciona_seguranca_hidrica</title>
<polygon fill="#66cdaa" stroke="black" points="517.6,-900 346.6,-900 346.6,-864 517.6,-864 517.6,-900"/>
<text text-anchor="middle" x="432.1" y="-878.3" font-family="Times New Roman,serif" font-size="14.00">adiciona_seguranca_hidrica</text>
</g>
<!-- seguranca_hidrica&#45;&gt;adiciona_seguranca_hidrica -->
<g id="edge14" class="edge">
<title>seguranca_hidrica&#45;&gt;adiciona_seguranca_hidrica</title>
<path fill="none" stroke="black" d="M522.74,-935.88C507.05,-926.72 487.54,-915.34 470.64,-905.48"/>
<polygon fill="black" stroke="black" points="471.97,-902.21 461.57,-900.19 468.44,-908.25 471.97,-902.21"/>
</g>
<!-- deficit_pnad -->
<g id="node5" class="node">
<title>deficit_pnad</title>
<polygon fill="deepskyblue" stroke="black" points="480,-1044 349.71,-1044 316.19,-1008 446.49,-1008 480,-1044"/>
<text text-anchor="middle" x="398.1" y="-1022.3" font-family="Times New Roman,serif" font-size="14.00">deficit_pnad</text>
</g>
<!-- adiciona_deficit_rural_agua -->
<g id="node18" class="node">
<title>adiciona_deficit_rural_agua</title>
<polygon fill="#66cdaa" stroke="black" points="398.1,-972 228.1,-972 228.1,-936 398.1,-936 398.1,-972"/>
<text text-anchor="middle" x="313.1" y="-950.3" font-family="Times New Roman,serif" font-size="14.00">adiciona_deficit_rural_agua</text>
</g>
<!-- deficit_pnad&#45;&gt;adiciona_deficit_rural_agua -->
<g id="edge12" class="edge">
<title>deficit_pnad&#45;&gt;adiciona_deficit_rural_agua</title>
<path fill="none" stroke="black" d="M377.09,-1007.7C366.38,-998.88 353.21,-988.03 341.6,-978.47"/>
<polygon fill="black" stroke="black" points="343.81,-975.76 333.87,-972.1 339.36,-981.16 343.81,-975.76"/>
</g>
<!-- custo_producao -->
<g id="node6" class="node">
<title>custo_producao</title>
<polygon fill="deepskyblue" stroke="black" points="992.84,-756 827.81,-756 785.36,-720 950.39,-720 992.84,-756"/>
<text text-anchor="middle" x="889.1" y="-734.3" font-family="Times New Roman,serif" font-size="14.00">custo_producao</text>
</g>
<!-- custo_producao_agua -->
<g id="node22" class="node">
<title>custo_producao_agua</title>
<polygon fill="#66cdaa" stroke="black" points="745.1,-684 603.1,-684 603.1,-648 745.1,-648 745.1,-684"/>
<text text-anchor="middle" x="674.1" y="-662.3" font-family="Times New Roman,serif" font-size="14.00">custo_producao_agua</text>
</g>
<!-- custo_producao&#45;&gt;custo_producao_agua -->
<g id="edge19" class="edge">
<title>custo_producao&#45;&gt;custo_producao_agua</title>
<path fill="none" stroke="black" d="M836.78,-719.97C806.48,-710.1 768.15,-697.62 736.31,-687.25"/>
<polygon fill="black" stroke="black" points="737.25,-683.88 726.65,-684.11 735.08,-690.53 737.25,-683.88"/>
</g>
<!-- custo_distribuicao -->
<g id="node7" class="node">
<title>custo_distribuicao</title>
<polygon fill="deepskyblue" stroke="black" points="1015.3,-684 833.63,-684 786.89,-648 968.57,-648 1015.3,-684"/>
<text text-anchor="middle" x="901.1" y="-662.3" font-family="Times New Roman,serif" font-size="14.00">custo_distribuicao</text>
</g>
<!-- custo_distribuicao_agua -->
<g id="node23" class="node">
<title>custo_distribuicao_agua</title>
<polygon fill="#66cdaa" stroke="black" points="977.6,-612 824.6,-612 824.6,-576 977.6,-576 977.6,-612"/>
<text text-anchor="middle" x="901.1" y="-590.3" font-family="Times New Roman,serif" font-size="14.00">custo_distribuicao_agua</text>
</g>
<!-- custo_distribuicao&#45;&gt;custo_distribuicao_agua -->
<g id="edge21" class="edge">
<title>custo_distribuicao&#45;&gt;custo_distribuicao_agua</title>
<path fill="none" stroke="black" d="M901.1,-647.7C901.1,-639.98 901.1,-630.71 901.1,-622.11"/>
<polygon fill="black" stroke="black" points="904.6,-622.1 901.1,-612.1 897.6,-622.1 904.6,-622.1"/>
</g>
<!-- custo_rural_individual -->
<g id="node8" class="node">
<title>custo_rural_individual</title>
<polygon fill="deepskyblue" stroke="black" points="844.42,-828 632.33,-828 577.78,-792 789.86,-792 844.42,-828"/>
<text text-anchor="middle" x="711.1" y="-806.3" font-family="Times New Roman,serif" font-size="14.00">custo_rural_individual</text>
</g>
<!-- custo_rural_individual&#45;&gt;custo_individual_agua -->
<g id="edge17" class="edge">
<title>custo_rural_individual&#45;&gt;custo_individual_agua</title>
<path fill="none" stroke="black" d="M701.95,-791.7C697.7,-783.64 692.54,-773.89 687.83,-764.98"/>
<polygon fill="black" stroke="black" points="690.91,-763.31 683.14,-756.1 684.72,-766.58 690.91,-763.31"/>
</g>
<!-- codigo_setor_para_municipio -->
<g id="node10" class="node">
<title>codigo_setor_para_municipio</title>
<polygon fill="#66cdaa" stroke="black" points="195.6,-1548 10.6,-1548 10.6,-1512 195.6,-1512 195.6,-1548"/>
<text text-anchor="middle" x="103.1" y="-1526.3" font-family="Times New Roman,serif" font-size="14.00">codigo_setor_para_municipio</text>
</g>
<!-- filtra_setores_rurais&#45;&gt;codigo_setor_para_municipio -->
<g id="edge2" class="edge">
<title>filtra_setores_rurais&#45;&gt;codigo_setor_para_municipio</title>
<path fill="none" stroke="black" d="M103.1,-1583.7C103.1,-1575.98 103.1,-1566.71 103.1,-1558.11"/>
<polygon fill="black" stroke="black" points="106.6,-1558.1 103.1,-1548.1 99.6,-1558.1 106.6,-1558.1"/>
</g>
<!-- codigo_setor_para_municipio&#45;&gt;adiciona_taxa_crescimento -->
<g id="edge3" class="edge">
<title>codigo_setor_para_municipio&#45;&gt;adiciona_taxa_crescimento</title>
<path fill="none" stroke="black" d="M133.68,-1511.88C150.17,-1502.64 170.72,-1491.13 188.44,-1481.21"/>
<polygon fill="black" stroke="black" points="190.39,-1484.13 197.4,-1476.19 186.97,-1478.02 190.39,-1484.13"/>
</g>
<!-- fazer_projecao_domicilio -->
<g id="node12" class="node">
<title>fazer_projecao_domicilio</title>
<polygon fill="#66cdaa" stroke="black" points="307.6,-1404 148.6,-1404 148.6,-1368 307.6,-1368 307.6,-1404"/>
<text text-anchor="middle" x="228.1" y="-1382.3" font-family="Times New Roman,serif" font-size="14.00">fazer_projecao_domicilio</text>
</g>
<!-- adiciona_taxa_crescimento&#45;&gt;fazer_projecao_domicilio -->
<g id="edge5" class="edge">
<title>adiciona_taxa_crescimento&#45;&gt;fazer_projecao_domicilio</title>
<path fill="none" stroke="black" d="M228.1,-1439.7C228.1,-1431.98 228.1,-1422.71 228.1,-1414.11"/>
<polygon fill="black" stroke="black" points="231.6,-1414.1 228.1,-1404.1 224.6,-1414.1 231.6,-1414.1"/>
</g>
<!-- densidade_setor -->
<g id="node13" class="node">
<title>densidade_setor</title>
<polygon fill="#66cdaa" stroke="black" points="282.1,-1332 174.1,-1332 174.1,-1296 282.1,-1296 282.1,-1332"/>
<text text-anchor="middle" x="228.1" y="-1310.3" font-family="Times New Roman,serif" font-size="14.00">densidade_setor</text>
</g>
<!-- fazer_projecao_domicilio&#45;&gt;densidade_setor -->
<g id="edge6" class="edge">
<title>fazer_projecao_domicilio&#45;&gt;densidade_setor</title>
<path fill="none" stroke="black" d="M228.1,-1367.7C228.1,-1359.98 228.1,-1350.71 228.1,-1342.11"/>
<polygon fill="black" stroke="black" points="231.6,-1342.1 228.1,-1332.1 224.6,-1342.1 231.6,-1342.1"/>
</g>
<!-- classifica_densidade_setor -->
<g id="node14" class="node">
<title>classifica_densidade_setor</title>
<polygon fill="#66cdaa" stroke="black" points="311.6,-1260 144.6,-1260 144.6,-1224 311.6,-1224 311.6,-1260"/>
<text text-anchor="middle" x="228.1" y="-1238.3" font-family="Times New Roman,serif" font-size="14.00">classifica_densidade_setor</text>
</g>
<!-- densidade_setor&#45;&gt;classifica_densidade_setor -->
<g id="edge7" class="edge">
<title>densidade_setor&#45;&gt;classifica_densidade_setor</title>
<path fill="none" stroke="black" d="M228.1,-1295.7C228.1,-1287.98 228.1,-1278.71 228.1,-1270.11"/>
<polygon fill="black" stroke="black" points="231.6,-1270.1 228.1,-1260.1 224.6,-1270.1 231.6,-1270.1"/>
</g>
<!-- classifica_deficit_setor -->
<g id="node15" class="node">
<title>classifica_deficit_setor</title>
<polygon fill="#66cdaa" stroke="black" points="300.6,-1188 155.6,-1188 155.6,-1152 300.6,-1152 300.6,-1188"/>
<text text-anchor="middle" x="228.1" y="-1166.3" font-family="Times New Roman,serif" font-size="14.00">classifica_deficit_setor</text>
</g>
<!-- classifica_densidade_setor&#45;&gt;classifica_deficit_setor -->
<g id="edge8" class="edge">
<title>classifica_densidade_setor&#45;&gt;classifica_deficit_setor</title>
<path fill="none" stroke="black" d="M228.1,-1223.7C228.1,-1215.98 228.1,-1206.71 228.1,-1198.11"/>
<polygon fill="black" stroke="black" points="231.6,-1198.1 228.1,-1188.1 224.6,-1198.1 231.6,-1198.1"/>
</g>
<!-- adiciona_estado -->
<g id="node16" class="node">
<title>adiciona_estado</title>
<polygon fill="#66cdaa" stroke="black" points="281.6,-1116 174.6,-1116 174.6,-1080 281.6,-1080 281.6,-1116"/>
<text text-anchor="middle" x="228.1" y="-1094.3" font-family="Times New Roman,serif" font-size="14.00">adiciona_estado</text>
</g>
<!-- classifica_deficit_setor&#45;&gt;adiciona_estado -->
<g id="edge9" class="edge">
<title>classifica_deficit_setor&#45;&gt;adiciona_estado</title>
<path fill="none" stroke="black" d="M228.1,-1151.7C228.1,-1143.98 228.1,-1134.71 228.1,-1126.11"/>
<polygon fill="black" stroke="black" points="231.6,-1126.1 228.1,-1116.1 224.6,-1126.1 231.6,-1126.1"/>
</g>
<!-- adiciona_regiao -->
<g id="node17" class="node">
<title>adiciona_regiao</title>
<polygon fill="#66cdaa" stroke="black" points="280.1,-1044 176.1,-1044 176.1,-1008 280.1,-1008 280.1,-1044"/>
<text text-anchor="middle" x="228.1" y="-1022.3" font-family="Times New Roman,serif" font-size="14.00">adiciona_regiao</text>
</g>
<!-- adiciona_estado&#45;&gt;adiciona_regiao -->
<g id="edge10" class="edge">
<title>adiciona_estado&#45;&gt;adiciona_regiao</title>
<path fill="none" stroke="black" d="M228.1,-1079.7C228.1,-1071.98 228.1,-1062.71 228.1,-1054.11"/>
<polygon fill="black" stroke="black" points="231.6,-1054.1 228.1,-1044.1 224.6,-1054.1 231.6,-1054.1"/>
</g>
<!-- adiciona_regiao&#45;&gt;adiciona_deficit_rural_agua -->
<g id="edge11" class="edge">
<title>adiciona_regiao&#45;&gt;adiciona_deficit_rural_agua</title>
<path fill="none" stroke="black" d="M249.11,-1007.7C259.81,-998.88 272.99,-988.03 284.59,-978.47"/>
<polygon fill="black" stroke="black" points="286.83,-981.16 292.33,-972.1 282.38,-975.76 286.83,-981.16"/>
</g>
<!-- adiciona_deficit_rural_agua&#45;&gt;adiciona_seguranca_hidrica -->
<g id="edge13" class="edge">
<title>adiciona_deficit_rural_agua&#45;&gt;adiciona_seguranca_hidrica</title>
<path fill="none" stroke="black" d="M342.21,-935.88C357.77,-926.72 377.12,-915.34 393.87,-905.48"/>
<polygon fill="black" stroke="black" points="396.03,-908.28 402.88,-900.19 392.48,-902.24 396.03,-908.28"/>
</g>
<!-- fracao_coletivo_individual_agua -->
<g id="node20" class="node">
<title>fracao_coletivo_individual_agua</title>
<polygon fill="#66cdaa" stroke="black" points="530.6,-828 333.6,-828 333.6,-792 530.6,-792 530.6,-828"/>
<text text-anchor="middle" x="432.1" y="-806.3" font-family="Times New Roman,serif" font-size="14.00">fracao_coletivo_individual_agua</text>
</g>
<!-- adiciona_seguranca_hidrica&#45;&gt;fracao_coletivo_individual_agua -->
<g id="edge15" class="edge">
<title>adiciona_seguranca_hidrica&#45;&gt;fracao_coletivo_individual_agua</title>
<path fill="none" stroke="black" d="M432.1,-863.7C432.1,-855.98 432.1,-846.71 432.1,-838.11"/>
<polygon fill="black" stroke="black" points="435.6,-838.1 432.1,-828.1 428.6,-838.1 435.6,-838.1"/>
</g>
<!-- fracao_coletivo_individual_agua&#45;&gt;custo_individual_agua -->
<g id="edge16" class="edge">
<title>fracao_coletivo_individual_agua&#45;&gt;custo_individual_agua</title>
<path fill="none" stroke="black" d="M490.99,-791.97C525.39,-782.01 568.98,-769.41 605,-758.99"/>
<polygon fill="black" stroke="black" points="606.31,-762.25 614.94,-756.11 604.37,-755.53 606.31,-762.25"/>
</g>
<!-- custo_individual_agua&#45;&gt;custo_producao_agua -->
<g id="edge18" class="edge">
<title>custo_individual_agua&#45;&gt;custo_producao_agua</title>
<path fill="none" stroke="black" d="M674.1,-719.7C674.1,-711.98 674.1,-702.71 674.1,-694.11"/>
<polygon fill="black" stroke="black" points="677.6,-694.1 674.1,-684.1 670.6,-694.1 677.6,-694.1"/>
</g>
<!-- custo_producao_agua&#45;&gt;custo_distribuicao_agua -->
<g id="edge20" class="edge">
<title>custo_producao_agua&#45;&gt;custo_distribuicao_agua</title>
<path fill="none" stroke="black" d="M729.34,-647.97C761.47,-638.06 802.15,-625.51 835.85,-615.12"/>
<polygon fill="black" stroke="black" points="837.09,-618.4 845.61,-612.11 835.02,-611.71 837.09,-618.4"/>
</g>
<!-- domicilios_com_deficit_agua -->
<g id="node24" class="node">
<title>domicilios_com_deficit_agua</title>
<polygon fill="#66cdaa" stroke="black" points="994.1,-540 812.1,-540 812.1,-504 994.1,-504 994.1,-540"/>
<text text-anchor="middle" x="903.1" y="-518.3" font-family="Times New Roman,serif" font-size="14.00">domicilios_com_deficit_agua</text>
</g>
<!-- custo_distribuicao_agua&#45;&gt;domicilios_com_deficit_agua -->
<g id="edge22" class="edge">
<title>custo_distribuicao_agua&#45;&gt;domicilios_com_deficit_agua</title>
<path fill="none" stroke="black" d="M901.59,-575.7C901.81,-567.98 902.08,-558.71 902.32,-550.11"/>
<polygon fill="black" stroke="black" points="905.82,-550.2 902.61,-540.1 898.83,-550 905.82,-550.2"/>
</g>
<!-- habitantes_com_deficit_agua -->
<g id="node25" class="node">
<title>habitantes_com_deficit_agua</title>
<polygon fill="#66cdaa" stroke="black" points="998.6,-468 819.6,-468 819.6,-432 998.6,-432 998.6,-468"/>
<text text-anchor="middle" x="909.1" y="-446.3" font-family="Times New Roman,serif" font-size="14.00">habitantes_com_deficit_agua</text>
</g>
<!-- domicilios_com_deficit_agua&#45;&gt;habitantes_com_deficit_agua -->
<g id="edge23" class="edge">
<title>domicilios_com_deficit_agua&#45;&gt;habitantes_com_deficit_agua</title>
<path fill="none" stroke="black" d="M904.58,-503.7C905.24,-495.98 906.04,-486.71 906.77,-478.11"/>
<polygon fill="black" stroke="black" points="910.27,-478.37 907.63,-468.1 903.29,-477.77 910.27,-478.37"/>
</g>
<!-- domicilios_adequados_com_agua -->
<g id="node26" class="node">
<title>domicilios_adequados_com_agua</title>
<polygon fill="#66cdaa" stroke="black" points="1015.1,-396 807.1,-396 807.1,-360 1015.1,-360 1015.1,-396"/>
<text text-anchor="middle" x="911.1" y="-374.3" font-family="Times New Roman,serif" font-size="14.00">domicilios_adequados_com_agua</text>
</g>
<!-- habitantes_com_deficit_agua&#45;&gt;domicilios_adequados_com_agua -->
<g id="edge24" class="edge">
<title>habitantes_com_deficit_agua&#45;&gt;domicilios_adequados_com_agua</title>
<path fill="none" stroke="black" d="M909.59,-431.7C909.81,-423.98 910.08,-414.71 910.32,-406.11"/>
<polygon fill="black" stroke="black" points="913.82,-406.2 910.61,-396.1 906.83,-406 913.82,-406.2"/>
</g>
<!-- investimento_rural_agua -->
<g id="node27" class="node">
<title>investimento_rural_agua</title>
<polygon fill="#66cdaa" stroke="black" points="989.1,-324 837.1,-324 837.1,-288 989.1,-288 989.1,-324"/>
<text text-anchor="middle" x="913.1" y="-302.3" font-family="Times New Roman,serif" font-size="14.00">investimento_rural_agua</text>
</g>
<!-- domicilios_adequados_com_agua&#45;&gt;investimento_rural_agua -->
<g id="edge25" class="edge">
<title>domicilios_adequados_com_agua&#45;&gt;investimento_rural_agua</title>
<path fill="none" stroke="black" d="M911.59,-359.7C911.81,-351.98 912.08,-342.71 912.32,-334.11"/>
<polygon fill="black" stroke="black" points="915.82,-334.2 912.61,-324.1 908.83,-334 915.82,-334.2"/>
</g>
<!-- capacidade_instalada_rural_agua -->
<g id="node28" class="node">
<title>capacidade_instalada_rural_agua</title>
<polygon fill="#66cdaa" stroke="black" points="1015.1,-252 815.1,-252 815.1,-216 1015.1,-216 1015.1,-252"/>
<text text-anchor="middle" x="915.1" y="-230.3" font-family="Times New Roman,serif" font-size="14.00">capacidade_instalada_rural_agua</text>
</g>
<!-- investimento_rural_agua&#45;&gt;capacidade_instalada_rural_agua -->
<g id="edge26" class="edge">
<title>investimento_rural_agua&#45;&gt;capacidade_instalada_rural_agua</title>
<path fill="none" stroke="black" d="M913.59,-287.7C913.81,-279.98 914.08,-270.71 914.32,-262.11"/>
<polygon fill="black" stroke="black" points="917.82,-262.2 914.61,-252.1 910.83,-262 917.82,-262.2"/>
</g>
<!-- capacidade_instalada_rural_agua&#45;&gt;calcula_reposicao_parcial_distribuicao -->
<g id="edge27" class="edge">
<title>capacidade_instalada_rural_agua&#45;&gt;calcula_reposicao_parcial_distribuicao</title>
<path fill="none" stroke="black" d="M921.28,-215.7C924.09,-207.81 927.49,-198.3 930.62,-189.55"/>
<polygon fill="black" stroke="black" points="933.92,-190.7 933.99,-180.1 927.33,-188.34 933.92,-190.7"/>
</g>
<!-- calcula_reposicao_parcial_distribuicao&#45;&gt;calcula_reposicao_parcial_producao -->
<g id="edge28" class="edge">
<title>calcula_reposicao_parcial_distribuicao&#45;&gt;calcula_reposicao_parcial_producao</title>
<path fill="none" stroke="black" d="M959.87,-143.7C969.85,-134.97 982.11,-124.24 992.96,-114.75"/>
<polygon fill="black" stroke="black" points="995.33,-117.32 1000.55,-108.1 990.72,-112.06 995.33,-117.32"/>
</g>
<!-- consolida_investimentos_rural_agua -->
<g id="node31" class="node">
<title>consolida_investimentos_rural_agua</title>
<polygon fill="#66cdaa" stroke="black" points="1129.6,-36 910.6,-36 910.6,0 1129.6,0 1129.6,-36"/>
<text text-anchor="middle" x="1020.1" y="-14.3" font-family="Times New Roman,serif" font-size="14.00">consolida_investimentos_rural_agua</text>
</g>
<!-- calcula_reposicao_parcial_producao&#45;&gt;consolida_investimentos_rural_agua -->
<g id="edge29" class="edge">
<title>calcula_reposicao_parcial_producao&#45;&gt;consolida_investimentos_rural_agua</title>
<path fill="none" stroke="black" d="M1020.1,-71.7C1020.1,-63.98 1020.1,-54.71 1020.1,-46.11"/>
<polygon fill="black" stroke="black" points="1023.6,-46.1 1020.1,-36.1 1016.6,-46.1 1023.6,-46.1"/>
</g>
</g>
</svg>
