<?xml version="1.0" encoding="UTF-8" standalone="no"?>
<!DOCTYPE svg PUBLIC "-//W3C//DTD SVG 1.1//EN"
 "http://www.w3.org/Graphics/SVG/1.1/DTD/svg11.dtd">
<!-- Generated by graphviz version 5.0.0 (20220707.1540)
 -->
<!-- Title: Projecao Pages: 1 -->
<svg width="457pt" height="496pt"
 viewBox="0.00 0.00 456.78 496.00" xmlns="http://www.w3.org/2000/svg" xmlns:xlink="http://www.w3.org/1999/xlink">
<g id="graph0" class="graph" transform="scale(1 1) rotate(0) translate(4 492)">
<title>Projecao</title>
<polygon fill="white" stroke="transparent" points="-4,4 -4,-492 452.78,-492 452.78,4 -4,4"/>
<!-- condition -->
<g id="node1" class="node">
<title>condition</title>
<polygon fill="#ffefdb" stroke="black" points="151.55,-415 89.05,-397 151.55,-379 214.06,-397 151.55,-415"/>
<text text-anchor="middle" x="151.55" y="-393.3" font-family="Times New Roman,serif" font-size="14.00">É censo?</text>
</g>
<!-- junta_fontes_populacao -->
<g id="node6" class="node">
<title>junta_fontes_populacao</title>
<polygon fill="#66cdaa" stroke="black" points="211.05,-255 60.05,-255 60.05,-219 211.05,-219 211.05,-255"/>
<text text-anchor="middle" x="135.55" y="-233.3" font-family="Times New Roman,serif" font-size="14.00">junta_fontes_populacao</text>
</g>
<!-- condition&#45;&gt;junta_fontes_populacao -->
<g id="edge5" class="edge">
<title>condition&#45;&gt;junta_fontes_populacao</title>
<path fill="none" stroke="black" d="M149.81,-379.23C148.39,-365.47 146.33,-345.47 144.55,-328 142.42,-306.94 140.03,-283.11 138.26,-265.26"/>
<polygon fill="black" stroke="black" points="141.74,-264.86 137.26,-255.26 134.77,-265.55 141.74,-264.86"/>
<text text-anchor="middle" x="149.05" y="-306.3" font-family="Times New Roman,serif" font-size="14.00">S</text>
</g>
<!-- preenche_situacao -->
<g id="node7" class="node">
<title>preenche_situacao</title>
<polygon fill="#66cdaa" stroke="black" points="282.55,-328 162.55,-328 162.55,-292 282.55,-292 282.55,-328"/>
<text text-anchor="middle" x="222.55" y="-306.3" font-family="Times New Roman,serif" font-size="14.00">preenche_situacao</text>
</g>
<!-- condition&#45;&gt;preenche_situacao -->
<g id="edge3" class="edge">
<title>condition&#45;&gt;preenche_situacao</title>
<path fill="none" stroke="black" d="M163.28,-381.96C173.65,-369.55 189.02,-351.14 201.52,-336.19"/>
<polygon fill="black" stroke="black" points="204.39,-338.21 208.11,-328.29 199.01,-333.72 204.39,-338.21"/>
<text text-anchor="middle" x="196.55" y="-349.8" font-family="Times New Roman,serif" font-size="14.00">N</text>
</g>
<!-- fonte1 -->
<g id="node2" class="node">
<title>fonte1</title>
<polygon fill="deepskyblue" stroke="black" points="99.16,-328 20.25,-328 -0.05,-292 78.86,-292 99.16,-328"/>
<text text-anchor="middle" x="49.55" y="-306.3" font-family="Times New Roman,serif" font-size="14.00">fonte1</text>
</g>
<!-- fonte1&#45;&gt;junta_fontes_populacao -->
<g id="edge1" class="edge">
<title>fonte1&#45;&gt;junta_fontes_populacao</title>
<path fill="none" stroke="black" d="M70.37,-291.81C81.36,-282.74 95,-271.48 106.97,-261.6"/>
<polygon fill="black" stroke="black" points="109.44,-264.09 114.93,-255.03 104.99,-258.7 109.44,-264.09"/>
</g>
<!-- fonte2 -->
<g id="node3" class="node">
<title>fonte2</title>
<polygon fill="deepskyblue" stroke="black" points="201.16,-488 122.25,-488 101.95,-452 180.86,-452 201.16,-488"/>
<text text-anchor="middle" x="151.55" y="-466.3" font-family="Times New Roman,serif" font-size="14.00">fonte2</text>
</g>
<!-- fonte2&#45;&gt;condition -->
<g id="edge2" class="edge">
<title>fonte2&#45;&gt;condition</title>
<path fill="none" stroke="black" d="M151.55,-451.81C151.55,-443.79 151.55,-434.05 151.55,-425.07"/>
<polygon fill="black" stroke="black" points="155.05,-425.03 151.55,-415.03 148.05,-425.03 155.05,-425.03"/>
</g>
<!-- taxas_crescimento -->
<g id="node4" class="node">
<title>taxas_crescimento</title>
<polygon fill="deepskyblue" stroke="black" points="237.76,-109 56.08,-109 9.35,-73 191.02,-73 237.76,-109"/>
<text text-anchor="middle" x="123.55" y="-87.3" font-family="Times New Roman,serif" font-size="14.00">taxas_crescimento</text>
</g>
<!-- projecao_populacional -->
<g id="node5" class="node">
<title>projecao_populacional</title>
<polygon fill="deepskyblue" stroke="black" points="449,-36 230.35,-36 174.11,0 392.75,0 449,-36"/>
<text text-anchor="middle" x="311.55" y="-14.3" font-family="Times New Roman,serif" font-size="14.00">projecao_populacional</text>
</g>
<!-- calcula_taxa_crescimento -->
<g id="node8" class="node">
<title>calcula_taxa_crescimento</title>
<polygon fill="#66cdaa" stroke="black" points="215.55,-182 55.55,-182 55.55,-146 215.55,-146 215.55,-182"/>
<text text-anchor="middle" x="135.55" y="-160.3" font-family="Times New Roman,serif" font-size="14.00">calcula_taxa_crescimento</text>
</g>
<!-- junta_fontes_populacao&#45;&gt;calcula_taxa_crescimento -->
<g id="edge6" class="edge">
<title>junta_fontes_populacao&#45;&gt;calcula_taxa_crescimento</title>
<path fill="none" stroke="black" d="M135.55,-218.81C135.55,-210.79 135.55,-201.05 135.55,-192.07"/>
<polygon fill="black" stroke="black" points="139.05,-192.03 135.55,-182.03 132.05,-192.03 139.05,-192.03"/>
</g>
<!-- preenche_situacao&#45;&gt;junta_fontes_populacao -->
<g id="edge4" class="edge">
<title>preenche_situacao&#45;&gt;junta_fontes_populacao</title>
<path fill="none" stroke="black" d="M201.49,-291.81C190.38,-282.74 176.57,-271.48 164.47,-261.6"/>
<polygon fill="black" stroke="black" points="166.38,-258.64 156.42,-255.03 161.95,-264.06 166.38,-258.64"/>
</g>
<!-- calcula_taxa_crescimento&#45;&gt;taxas_crescimento -->
<g id="edge9" class="edge">
<title>calcula_taxa_crescimento&#45;&gt;taxas_crescimento</title>
<path fill="none" stroke="black" d="M132.65,-145.81C131.29,-137.79 129.65,-128.05 128.13,-119.07"/>
<polygon fill="black" stroke="black" points="131.55,-118.31 126.43,-109.03 124.65,-119.47 131.55,-118.31"/>
</g>
<!-- calcula_projecao -->
<g id="node9" class="node">
<title>calcula_projecao</title>
<polygon fill="#66cdaa" stroke="black" points="367.05,-109 256.05,-109 256.05,-73 367.05,-73 367.05,-109"/>
<text text-anchor="middle" x="311.55" y="-87.3" font-family="Times New Roman,serif" font-size="14.00">calcula_projecao</text>
</g>
<!-- calcula_taxa_crescimento&#45;&gt;calcula_projecao -->
<g id="edge7" class="edge">
<title>calcula_taxa_crescimento&#45;&gt;calcula_projecao</title>
<path fill="none" stroke="black" d="M177.71,-145.99C202.34,-136.06 233.63,-123.43 259.76,-112.89"/>
<polygon fill="black" stroke="black" points="261.17,-116.1 269.13,-109.11 258.55,-109.61 261.17,-116.1"/>
</g>
<!-- calcula_projecao&#45;&gt;projecao_populacional -->
<g id="edge8" class="edge">
<title>calcula_projecao&#45;&gt;projecao_populacional</title>
<path fill="none" stroke="black" d="M311.55,-72.81C311.55,-64.79 311.55,-55.05 311.55,-46.07"/>
<polygon fill="black" stroke="black" points="315.05,-46.03 311.55,-36.03 308.05,-46.03 315.05,-46.03"/>
</g>
</g>
</svg>
